<?xml version="1.0" standalone="no"?>
<!DOCTYPE svg PUBLIC "-//W3C//DTD SVG 20010904//EN"
 "http://www.w3.org/TR/2001/REC-SVG-20010904/DTD/svg10.dtd">
<svg version="1.0" xmlns="http://www.w3.org/2000/svg"
 width="128.000000pt" height="128.000000pt" viewBox="0 0 128.000000 128.000000"
 preserveAspectRatio="xMidYMid meet">
<metadata>
Created by potrace 1.11, written by Peter Selinger 2001-2013
</metadata>
<g transform="translate(0.000000,128.000000) scale(0.100000,-0.100000)"
fill="#000000" stroke="none">
<path d="M362 971 c-6 -4 -9 -109 -8 -271 2 -225 5 -271 20 -305 20 -47 59
-91 101 -113 101 -53 273 -47 353 11 90 67 99 106 101 420 1 173 -1 257 -8
258 -6 1 -22 2 -36 2 -14 0 -31 -1 -39 -2 -11 -1 -13 -48 -14 -255 -1 -276 -5
-300 -58 -349 -60 -56 -204 -55 -267 1 -11 9 -28 35 -38 57 -16 35 -19 69 -19
293 0 138 -3 253 -7 253 -33 5 -73 5 -81 0z"/>
</g>
</svg>
